<?xml version="1.0" encoding="UTF-8"?>
<svg xmlns="http://www.w3.org/2000/svg" xmlns:xlink="http://www.w3.org/1999/xlink" xmlns:svgjs="http://svgjs.com/svgjs" version="1.1" width="512" height="512" x="0" y="0" viewBox="0 0 64 64" style="enable-background:new 0 0 512 512" xml:space="preserve">
  <g>
    <path d="M41 50h2v2h-2zM61 50h2v2h-2zM51 40h2v2h-2zM43.51 43.933l1.414-1.414 1.414 1.414-1.414 1.414zM57.644 58.053l1.414-1.414 1.414 1.414-1.414 1.414zM43.507 58.07l1.414-1.414 1.414 1.414-1.414 1.414zM57.647 43.936l1.414-1.414 1.414 1.414-1.414 1.414zM56.41 45.56a7 7 0 1 0-7.91 11.5v2.44a3.5 3.5 0 0 0 7 0v-2.44a7 7 0 0 0 .91-11.5zM53.5 59.5a1.5 1.5 0 0 1-3 0V59h3zm.58-4a1 1 0 0 0-.58.91V57h-3v-.55a1 1 0 0 0-.58-.91 5 5 0 0 1 1-9.42 5 5 0 0 1 3.18 9.42zM24.06 33.81a1.58 1.58 0 0 0 .18 1.27L25.37 37a1.72 1.72 0 0 0 2.3.61l.26-.15a7.19 7.19 0 0 0 1.24.7v.22a1.69 1.69 0 0 0 1.7 1.62h2.26a1.69 1.69 0 0 0 1.7-1.67v-.22a6.83 6.83 0 0 0 1.24-.7l.26.15a1.72 1.72 0 0 0 2.3-.61l1.13-1.87a1.58 1.58 0 0 0 .18-1.27 1.66 1.66 0 0 0-.81-1l-.21-.12v-1.3l.21-.12a1.66 1.66 0 0 0 .81-1 1.58 1.58 0 0 0-.18-1.27l-1.13-1.87a1.72 1.72 0 0 0-2.3-.61l-.26.15a7.19 7.19 0 0 0-1.24-.7v-.22a1.69 1.69 0 0 0-1.7-1.75h-2.26a1.69 1.69 0 0 0-1.7 1.67v.22a6.83 6.83 0 0 0-1.24.7l-.26-.15a1.72 1.72 0 0 0-2.3.61l-1.13 1.87a1.58 1.58 0 0 0-.18 1.27 1.66 1.66 0 0 0 .81 1l.21.12v1.3l-.21.12a1.66 1.66 0 0 0-.81 1.08zm3-1.81v-.63a1.65 1.65 0 0 0-.85-1.67l-.1-.06.79-1.32.18.1a1.76 1.76 0 0 0 1.92-.13 4.84 4.84 0 0 1 1.09-.61 1.69 1.69 0 0 0 1.09-1.56V26h1.66v.12a1.69 1.69 0 0 0 1.09 1.56 5.14 5.14 0 0 1 1.1.61 1.74 1.74 0 0 0 1.87.13l.18-.1.79 1.32-.1.06a1.67 1.67 0 0 0-.86 1.67A4.46 4.46 0 0 1 37 32v.63a1.65 1.65 0 0 0 .85 1.67l.1.06-.79 1.32-.18-.1a1.76 1.76 0 0 0-1.88.13 4.84 4.84 0 0 1-1.09.61 1.69 1.69 0 0 0-1.09 1.56V38h-1.75v-.12a1.69 1.69 0 0 0-1.09-1.56 5.14 5.14 0 0 1-1.1-.61 1.74 1.74 0 0 0-1.87-.13l-.18.1-.79-1.32.1-.06a1.67 1.67 0 0 0 .86-1.67 4.46 4.46 0 0 1-.05-.63z" fill="#f54495" data-original="#000000"/>
    <path d="M32 35.25A3.25 3.25 0 1 0 28.75 32 3.26 3.26 0 0 0 32 35.25zm0-4.5A1.25 1.25 0 1 1 30.75 32 1.25 1.25 0 0 1 32 30.75zM20 33h1v-2h-1a11 11 0 0 0 0 22h12.39l-1.9 1.14 1 1.72 5-3a1 1 0 0 0 0-1.72l-5-3-1 1.72 1.9 1.14H20a9 9 0 0 1 0-18zM44 11H27v2h17a9 9 0 0 1 0 18h-1v2h1a11 11 0 0 0 0-22zM12 23A11 11 0 1 0 1 12a11 11 0 0 0 11 11zm0-20a9 9 0 1 1-9 9 9 9 0 0 1 9-9z" fill="#f54495" data-original="#000000"/>
    <path d="M12 7a2 2 0 0 1 0 4 1 1 0 0 0-1 1v3h2v-2.13A4 4 0 1 0 8 9h2a2 2 0 0 1 2-2zM11 17h2v2h-2z" fill="#f54495" data-original="#000000"/>
  </g>
</svg>
