<?xml version="1.0" encoding="UTF-8"?>
<svg xmlns="http://www.w3.org/2000/svg" xmlns:xlink="http://www.w3.org/1999/xlink" xmlns:svgjs="http://svgjs.com/svgjs" version="1.1" width="512" height="512" x="0" y="0" viewBox="0 0 500 500" style="enable-background:new 0 0 512 512" xml:space="preserve">
  <g>
    <path fill-rule="evenodd" d="M250 350.34c13.74 0 26.19 5.57 35.19 14.58 9.01 9.01 14.58 21.45 14.58 35.19s-5.57 26.18-14.58 35.19-21.45 14.58-35.19 14.58-26.19-5.57-35.19-14.58c-9.01-9.01-14.58-21.45-14.58-35.19s5.57-26.19 14.58-35.19c9-9.01 21.45-14.58 35.19-14.58zm25.56 24.21c-6.54-6.54-15.58-10.59-25.56-10.59s-19.02 4.05-25.56 10.59-10.59 15.58-10.59 25.56 4.05 19.02 10.59 25.56 15.58 10.59 25.56 10.59 19.02-4.05 25.56-10.59 10.59-15.58 10.59-25.56c0-9.99-4.05-19.02-10.59-25.56zm-31.99-68.04c-3.76 0-7.17 1.53-9.64 4s-4 5.88-4 9.64h.03v5h-.03c0 .04.02.04.01.05-.02.02.01-.03-.03-.02-3.27.88-6.48 1.97-9.59 3.26v.01a77.503 77.503 0 0 0-9.09 4.48c-.01.01-.02.01-.02.02l-3.2-3.2c-.11-.13-.23-.25-.35-.37-2.66-2.66-6.16-3.99-9.65-3.99s-6.99 1.33-9.65 3.99l-9.1 9.1.01.01-.01.01c-2.64 2.64-3.96 6.13-3.96 9.62h-.03c0 3.49 1.33 6.98 3.99 9.64l.01-.01 3.55 3.55c.02.02.02-.01.02 0s-.01 0-.03.03c-1.7 2.93-3.2 5.97-4.49 9.08h.01l-.01.02c-1.31 3.15-2.4 6.35-3.26 9.57-.01.03.04.01.02.03-.01.01-.01-.01-.05-.01h-5c-3.74 0-7.15 1.53-9.62 4-2.49 2.48-4.03 5.9-4.03 9.64v12.87c0 3.76 1.53 7.17 4 9.64l.01-.01.01.01c2.47 2.47 5.87 4 9.62 4h5c.04 0 .04-.02.05-.01.02.02-.03-.01-.02.03.87 3.27 1.97 6.48 3.26 9.59 1.29 3.12 2.79 6.15 4.49 9.08l.02.02c-1.08 1.04-2.14 2.14-3.2 3.2-.13.11-.25.23-.37.35-2.66 2.66-3.99 6.15-3.99 9.64s1.33 6.98 3.99 9.65l9.1 9.1.01-.01.01.01c2.66 2.66 6.14 3.99 9.62 3.99 3.49 0 6.98-1.33 9.65-3.99l-.01-.01 3.55-3.55c.02-.02-.01-.02 0-.02s0 .01.03.03c2.93 1.7 5.97 3.2 9.08 4.49a78.01 78.01 0 0 0 9.6 3.26c.03.01.01-.04.03-.02.01.01-.01.01-.01.05v5c0 3.76 1.53 7.17 4 9.64s5.88 4 9.64 4h12.87c3.74 0 7.15-1.53 9.62-4l.03-.03c2.47-2.47 4-5.87 4-9.62v-5c0-.04-.02-.04-.01-.05.02-.02-.01.03.03.02 3.27-.88 6.48-1.97 9.59-3.26a76.68 76.68 0 0 0 9.09-4.49c.01-.01.02-.01.02-.02l3.2 3.2c.11.13.23.25.35.37 2.66 2.66 6.15 3.99 9.65 3.99 3.49 0 6.98-1.33 9.65-3.99l9.1-9.1-.01-.01.01-.01c2.66-2.66 3.99-6.14 3.99-9.62 0-3.49-1.33-6.98-3.99-9.65l-3.54-3.54-.01.01-.01-.01c-.02-.02-.02.01-.02 0s.01 0 .03-.03c1.6-2.78 3.05-5.69 4.33-8.73.06-.11.11-.23.16-.35a78.01 78.01 0 0 0 3.26-9.6c.01-.03-.04-.01-.02-.03.01-.01.01.01.05.01v-.03h5v.03c3.74 0 7.15-1.53 9.62-4 2.49-2.49 4.03-5.9 4.03-9.64v-12.87c0-3.76-1.53-7.17-4-9.64s-5.88-4-9.64-4h-5c-.04 0-.04.02-.05.01-.02-.02.03.01.02-.03-.83-3.11-1.88-6.19-3.12-9.23-.04-.12-.09-.24-.14-.36a75.797 75.797 0 0 0-4.49-9.08l-.01-.01 3.56-3.56c2.66-2.66 3.99-6.15 3.99-9.64s-1.33-6.99-3.99-9.65l-9.1-9.1-.01.01-.01-.01a13.579 13.579 0 0 0-9.62-3.99c-3.49 0-6.98 1.33-9.65 3.99l-3.54 3.54c-.04.04.03.04 0 .05-.01 0 0-.01-.03-.03-2.78-1.6-5.69-3.05-8.74-4.33-.11-.05-.23-.11-.35-.16a78.436 78.436 0 0 0-9.59-3.26c-.03-.01-.01.04-.03.02-.01-.01.01-.01.01-.05v-5c0-3.76-1.53-7.17-4-9.64s-5.88-4-9.64-4h-12.88zm12.86 13.62h-12.87l-.02.02h-.03v5h.03c0 3.09-1.02 5.97-2.81 8.3s-4.32 4.07-7.31 4.88c-2.72.73-5.36 1.62-7.89 2.67v-.01l-.03.01a62.994 62.994 0 0 0-7.46 3.69c-2.69 1.55-5.69 2.11-8.59 1.73-2.91-.38-5.66-1.69-7.85-3.88l-3.19-3.19c-.13-.11-.25-.23-.37-.35H198l-9.1 9.1-.01-.01c-.01.01-.01.02-.01.03h.03v.02l-.01.01 3.55 3.55c2.19 2.2 3.5 4.95 3.88 7.85s-.18 5.91-1.73 8.59a62.746 62.746 0 0 0-3.69 7.49h-.01c-1.03 2.5-1.93 5.13-2.66 7.9-.8 3-2.54 5.52-4.88 7.31a13.58 13.58 0 0 1-8.3 2.81h-5c-.02 0-.03 0-.04.01s.02-.01.02.01v12.87l.01.01-.01.01h5.02c3.09 0 5.97 1.02 8.3 2.81s4.07 4.32 4.88 7.31c.73 2.72 1.62 5.36 2.67 7.89 1.08 2.61 2.32 5.11 3.69 7.49 1.55 2.69 2.11 5.69 1.73 8.6-.38 2.89-1.69 5.64-3.86 7.83l-3.2 3.21c-.11.13-.23.25-.35.37v.03l9.1 9.1h.03l.01.01 3.55-3.55c2.2-2.19 4.95-3.5 7.85-3.88s5.91.18 8.59 1.73c2.38 1.38 4.88 2.61 7.49 3.69 2.53 1.05 5.17 1.95 7.89 2.67 3 .8 5.52 2.54 7.31 4.88a13.58 13.58 0 0 1 2.81 8.3v5l.02.02h12.89v-5.02c0-3.09 1.02-5.97 2.81-8.3s4.32-4.07 7.31-4.88c2.72-.73 5.36-1.62 7.89-2.67 2.61-1.08 5.11-2.32 7.49-3.69 2.69-1.55 5.69-2.11 8.59-1.73 2.89.38 5.64 1.69 7.84 3.86l3.2 3.2c.13.11.25.23.37.35h.03l9.1-9.1v-.03l-3.54-3.54.01-.01c-2.19-2.2-3.51-4.96-3.89-7.86s.18-5.91 1.73-8.6c1.35-2.33 2.54-4.71 3.56-7.15.04-.11.08-.22.13-.34 1.05-2.53 1.95-5.17 2.67-7.89.8-3 2.54-5.52 4.88-7.31a13.58 13.58 0 0 1 8.3-2.81v.03h5v-.03c.02 0 .04 0 .04-.01.01-.01-.02.01-.02-.01v-12.87l-.02-.02h-5c-3.09 0-5.97-1.02-8.29-2.81a13.699 13.699 0 0 1-4.88-7.31c-.71-2.65-1.56-5.18-2.53-7.58-.05-.1-.1-.21-.14-.32a64.298 64.298 0 0 0-3.69-7.49c-1.55-2.69-2.11-5.69-1.73-8.59.35-2.67 1.5-5.23 3.39-7.33.15-.19.31-.37.49-.54l3.54-3.54v-.03L302 339h-.03l-3.54 3.54a13.637 13.637 0 0 1-7.88 3.88c-2.9.38-5.91-.18-8.59-1.73a63.586 63.586 0 0 0-7.16-3.56c-.11-.04-.22-.08-.34-.13a61.989 61.989 0 0 0-7.89-2.67c-3-.8-5.52-2.54-7.31-4.88a13.58 13.58 0 0 1-2.81-8.3v-5zM220.25 163.3c1.6 8.13 4.96 15.85 10.08 23.16 5.21 7.44 12.24 14.5 21.1 21.16 8.85-6.59 15.84-13.32 21.01-20.45 4.85-6.68 8.07-13.73 9.72-21.38-.22-.12-.43-.24-.65-.35-.36-.16-.69-.35-1.01-.57-9.1-5.21-13.88-10.54-16.14-15.71-.9-2.05-1.41-4.02-1.63-5.91-2.55.52-5.14.81-7.76.85-5.38.08-10.88-.58-16.22-2.11-.47 10-8.1 16.31-18.5 21.31zm74.52 8.19c2.02.78 4.02 1.51 5.99 2.24 12.59 4.61 23.82 8.73 23.82 21.33 0 11.57-.02 30.37-.07 41.9-.03 7.63-.07 14.9-.12 20.67h-19v-56.68c0-3.76-3.05-6.81-6.81-6.81s-6.81 3.05-6.81 6.81v56.68h-83.53v-56.68c0-3.76-3.05-6.81-6.81-6.81s-6.81 3.05-6.81 6.81v56.68H175.4c-.02-10.84.09-27.63.2-42.32.09-12.6.17-23.9.17-25.52 0-10.02 14.24-15.09 28.09-20.01 1.21-.43 2.42-.86 3.62-1.29 2.13 9.03 6.04 17.61 11.73 25.74 6.87 9.81 16.31 18.92 28.33 27.32a6.785 6.785 0 0 0 7.91-.1c11.94-8.36 21.25-16.98 28.01-26.3 5.36-7.4 9.12-15.22 11.31-23.66zm5.46-76.92c0-6.52-.4-10.43-2.34-13.49-2.7-4.26-6.19-5.19-12.03-5.19-10.69 0-20.31-3.78-27.22-9.89-6.69-5.92-10.82-14.04-10.82-22.98 0-.75.01-1.31.03-1.69.02-.4.07-.88.13-1.42.12-.79.1-1.62-.08-2.44a6.796 6.796 0 0 0-8.09-5.21c-12.83 2.81-23.98 9.79-30.95 21.58-5.93 10.03-8.7 23.39-6.65 40.42 2 16.62 8.23 28.42 16.59 36.41 1.54 1.47 3.14 2.8 4.8 4.01 3.11 8.42-2.12 13.1-9.92 16.75-.74.35-1.52.69-2.32 1.03h-10.85c-1.71 0-3.27-.7-4.4-1.83s-1.83-2.69-1.83-4.4V76.51c0-15.63 6.33-29.78 16.58-40.02 10.24-10.24 24.39-16.58 40.02-16.58s29.78 6.33 40.02 16.58c10.24 10.24 16.58 24.39 16.58 40.02v69.69c0 1.71-.7 3.27-1.83 4.4s-2.69 1.83-4.4 1.83h-15.17c-5.4-3.21-8.14-6.1-9.28-8.7-.86-1.97-.63-4.05-.02-6.05 3.86-2.35 7.42-5.29 10.53-8.75 7.86-8.71 12.92-20.65 12.92-34.36zm-23.03 25.27c5.72-6.35 9.41-15.12 9.41-25.28 0-3.9-.04-5.93-.21-6.2-.59-.94.3 1.14-.54 1.14-14.08 0-26.88-5.1-36.21-13.35-8.24-7.29-13.77-17.02-15.12-27.89-5.74 2.67-10.59 6.78-13.96 12.47-4.47 7.56-6.51 18.06-4.84 31.9 1.59 13.16 6.25 22.24 12.44 28.16 7.43 7.1 17.25 9.86 26.63 9.73 8.35-.11 16.46-4.08 22.4-10.68zm34.27 43.37c4.04 1.56 7.88 3.19 11.33 5.15 4.15-8.66 10.57-15.57 18.61-20.77 9.85-6.37 22.13-10.05 35.56-11.1l1.41-6.89a59.862 59.862 0 0 1-12.4-10.31c-9.54-10.38-15.89-24.44-15.89-40.12 0-1.54.13-3.98.29-6.82.38-7.04.92-16.93-.55-25.94-.06-.27-.11-.53-.14-.8-.08-.44-.16-.89-.25-1.33-1.94-9.49-1.53-17.87.39-24.06 1.03-3.34 2.52-6.15 4.34-8.3 2.23-2.64 4.98-4.36 8.11-5 2.16-.44 4.4-.34 6.65.36 16.63 5.15 22.15 3.73 27.69 2.31 3.55-.91 7.11-1.83 12.25-1.83 2.37 0 4.77.15 7.18.44 13.62 1.64 26.67 7.94 36.33 18.45 9.62 10.47 15.85 25.03 15.85 43.18 0 3.23-.2 6.61-.63 10.13-2.4 19.92-9.87 33.52-19.73 42.54a53.617 53.617 0 0 1-9.68 7.04l2.02 6.92c16.4 1.23 31.11 6.39 41.84 15.57 11.1 9.49 17.86 23.02 17.86 40.65 0 14.39 0 16.24.01 18.24.05 18.18.11 41.83-.03 53.03a6.811 6.811 0 0 1-6.79 7.32h-27.27v4.4c0 6.06-2.47 11.55-6.45 15.53s-9.48 6.45-15.53 6.45h-70.22c-6.06 0-11.55-2.47-15.53-6.45s-6.45-9.48-6.45-15.53v-4.4h-27.27v-.03H148.5v4.41c0 6.06-2.47 11.56-6.45 15.54s-9.48 6.45-15.54 6.45h-70.3c-6.06 0-11.56-2.47-15.54-6.45s-6.45-9.48-6.45-15.54v-4.41H6.91a6.811 6.811 0 0 1-6.79-7.32c-.14-11.21-.08-34.89-.03-53.09.01-2.04.01-4.19.01-18.26 0-17.65 6.77-31.19 17.88-40.69 10.74-9.19 25.47-14.36 41.89-15.59l2.02-6.94a53.677 53.677 0 0 1-9.7-7.05c-9.87-9.03-17.34-22.64-19.75-42.58-.42-3.52-.63-6.91-.63-10.14 0-18.17 6.23-32.74 15.86-43.23C57.34 15.84 70.4 9.53 84.04 7.88c2.41-.29 4.81-.44 7.19-.44 5.14 0 8.71.92 12.26 1.83 5.55 1.43 11.08 2.85 27.73-2.31 2.25-.7 4.49-.8 6.66-.36 3.13.64 5.88 2.36 8.12 5 1.83 2.16 3.31 4.97 4.35 8.31 1.92 6.19 2.34 14.58.39 24.08-.09.44-.17.88-.25 1.33-.03.26-.07.53-.14.8-1.48 9.02-.94 18.93-.56 25.97.16 2.84.29 5.28.29 6.82 0 15.7-6.36 29.77-15.91 40.16-3.7 4.03-7.91 7.51-12.42 10.32l1.42 6.91c13.02 1.02 24.98 4.52 34.69 10.54 7.98 4.95 14.43 11.55 18.76 19.82 3.36-2.03 7.12-3.78 11.05-5.38-.4-.35-.8-.71-1.17-1.08-3.59-3.59-5.82-8.56-5.82-14.02V76.51c0-19.39 7.86-36.94 20.57-49.65 12.69-12.7 30.24-20.56 49.63-20.56s36.94 7.86 49.65 20.57 20.57 30.26 20.57 49.65v69.69c0 5.47-2.23 10.43-5.82 14.02a20.053 20.053 0 0 1-3.81 2.98zm22.11 14.65c2.91 4.34 4.62 9.86 4.62 17.2 0 5.78-.04 21.78-.13 41.95-.03 7.63-.07 14.89-.12 20.65h13.7v-69.91c0-3.76 3.05-6.81 6.81-6.81s6.81 3.05 6.81 6.81v87.93c0 2.3.94 4.39 2.46 5.9a8.333 8.333 0 0 0 5.9 2.46h70.22c2.3 0 4.39-.94 5.9-2.46a8.333 8.333 0 0 0 2.46-5.9V187.75c0-3.76 3.05-6.81 6.81-6.81s6.81 3.05 6.81 6.81v69.91h20.55c.07-12.33.02-31.46-.02-46.73-.03-12.77-.06-12.6-.06-18.24 0-13.3-4.95-23.38-13.07-30.33-8.72-7.46-21.13-11.58-35.18-12.44l-13.06 15.53 7.71 11.51c2.09 3.11 1.25 7.33-1.86 9.42l-.16.1-5.59 3.51 7.83 46.69c.32 1.93-.2 3.8-1.3 5.24l-17.39 23.71a6.793 6.793 0 0 1-9.5 1.46c-.51-.37-.95-.81-1.33-1.28l-18.78-23.87a6.763 6.763 0 0 1-1.31-5.57l7.78-46.39-5.59-3.51c-3.17-2-4.13-6.19-2.13-9.36.07-.1.13-.21.2-.31l8.29-12.38-12.21-14.53c-11.84.7-22.55 3.73-30.88 9.12-7.01 4.53-12.33 10.8-15.19 18.85zm-171.75 79.77c-.02-10.9.09-27.68.2-42.37.06-8.58.11-16.28.11-25.47 0-5.42 1.44-9.86 3.92-13.57-3.07-7.59-8.43-13.53-15.35-17.82-8.24-5.11-18.69-7.98-30.22-8.67l-12.23 14.55 8.3 12.4c.07.1.14.2.2.3 2 3.17 1.05 7.37-2.13 9.36l-5.6 3.52 7.79 46.45c.39 1.89-.03 3.93-1.31 5.57l-18.8 23.9c-.37.47-.82.91-1.33 1.28a6.802 6.802 0 0 1-9.5-1.46l-17.41-23.74a6.772 6.772 0 0 1-1.3-5.24l7.84-46.75-5.6-3.52-.16-.11a6.791 6.791 0 0 1-1.86-9.42l7.72-11.53-13.08-15.55c-14.06.86-26.5 4.99-35.23 12.46-8.13 6.96-13.09 17.05-13.09 30.37 0 5.32-.03 5.52-.06 18.26-.04 15.29-.09 34.45-.02 46.79h20.59v-70c0-3.76 3.05-6.81 6.81-6.81s6.81 3.05 6.81 6.81v88.03c0 2.3.94 4.4 2.46 5.92s3.61 2.46 5.92 2.46h70.3c2.3 0 4.4-.94 5.92-2.46s2.46-3.61 2.46-5.92v-88.03c0-3.76 3.05-6.81 6.81-6.81s6.81 3.05 6.81 6.81v70h13.31zm94.98 37.22v-8.37c0-3.76-3.05-6.81-6.81-6.81s-6.81 3.05-6.81 6.81v8.37c0 3.76 3.05 6.81 6.81 6.81s6.81-3.05 6.81-6.81zM76.09 320.78c0-3.76 3.05-6.81 6.81-6.81s6.81 3.05 6.81 6.81v65.04c0 1.03-.04-.31-.02.46.12 6.27 2.74 12.02 6.91 16.22 4.14 4.16 9.78 6.77 15.98 6.77v-.03c1.09 0-.36.04.44.02 8.92-.17 12.33-.31 15.19-.44 3.34-.14 5.89-.26 17.36-.34a6.788 6.788 0 0 1 6.81 6.76 6.788 6.788 0 0 1-6.76 6.81c-10.83.08-13.43.19-16.83.34-2.73.12-5.99.26-15.56.44-1.16.02.08.03-.65.03v-.03c-9.99 0-19.03-4.14-25.61-10.76-6.54-6.59-10.67-15.66-10.85-25.58-.02-1.15-.03-.02-.03-.67zM353.81 422a6.78 6.78 0 0 1-6.78-6.78 6.78 6.78 0 0 1 6.78-6.78c8.85.02 12.5.05 15.4.07 1.34.01 2.2.01 18.21.01 6.47 0 12.22-2.48 16.31-6.55 4.07-4.05 6.56-9.72 6.56-16.15v-65.58c0-3.76 3.05-6.81 6.81-6.81s6.81 3.05 6.81 6.81v65.58c0 10.17-4.02 19.23-10.6 25.77-6.59 6.55-15.71 10.54-25.89 10.54-7.54 0-11.8-.03-18.26-.07-2.93-.01-6.6-.03-15.35-.06zm36.08-280.95 13.56 16.12h10.78l13.27-15.79-1.91-6.54c-7.11 2.08-14.4 2.86-21.3 2.76-4.45-.06-8.91-.81-13.25-2.16zm-26.84-97.8c.03.1.06.2.09.28 1.39 3.55 8.02 4.98 16.39 5.14 10.28.2 22.6-1.85 32.76-4.58 4.09-1.1 7.77-2.28 10.77-3.46a6.784 6.784 0 0 1 9.2 5.41c1.07 7.34 3.88 12.86 8.43 16.55 3.49 2.83 8.11 4.74 13.88 5.74-.32-13.76-5.04-24.68-12.21-32.48-7.4-8.05-17.43-12.88-27.93-14.14-1.82-.22-3.69-.33-5.58-.33-3.65 0-6.28.68-8.9 1.35-7.41 1.91-14.79 3.8-35.03-2.47-.07.06-.21.21-.4.44-.67.79-1.26 1.98-1.74 3.51-1.31 4.22-1.53 10.22-.07 17.35.14.58.24 1.13.34 1.69zm90.53 38.68c-8.69-1.32-15.83-4.26-21.43-8.8-5.42-4.4-9.27-10.16-11.54-17.27-1.54.47-3.15.94-4.8 1.38-11.13 2.98-24.82 5.23-36.53 5-5.44-.11-10.51-.77-14.89-2.15 0 4.8-.24 9.24-.44 12.96-.13 2.31-.23 4.29-.23 6.13 0 12.06 4.91 22.9 12.28 30.92 3.77 4.1 8.14 7.44 12.81 9.83.2.09.39.18.57.29 4.86 2.39 10.01 3.75 15.09 3.82 7.5.11 15.5-1.03 22.84-4.19l.14-.06c4.03-1.76 7.86-4.14 11.29-7.27 7.01-6.45 12.5-16.22 14.84-30.59zm-88.61-61.68c.03-.01.06-.02.02-.01zm52.55 158.45-5.3-7.91h-8.29l-5.3 7.91 3.23 2.03a6.804 6.804 0 0 1 3.37 7.04l-8.07 48.14 11.39 14.48 10.47-14.29-8.1-48.33c-.44-2.62.7-5.36 3.08-6.86zM96.66 157.02l13.58-16.15-1.16-5.63c-4.35 1.35-8.82 2.1-13.27 2.16-6.91.1-14.21-.68-21.33-2.76l-1.91 6.56 13.3 15.81h10.79zm39.11-97.21c-4.39 1.38-9.47 2.05-14.92 2.16-11.73.23-25.44-2.02-36.57-5.01-1.66-.44-3.27-.91-4.81-1.38-2.27 7.13-6.12 12.89-11.55 17.3-5.61 4.55-12.76 7.49-21.46 8.81 2.34 14.39 7.84 24.18 14.88 30.62 3.43 3.13 7.25 5.51 11.29 7.27.06.02.11.05.17.07 7.34 3.17 15.35 4.3 22.85 4.19 5.09-.07 10.25-1.43 15.12-3.83.18-.1.37-.2.56-.28 4.67-2.39 9.06-5.75 12.83-9.85 7.38-8.03 12.29-18.88 12.29-30.96 0-1.84-.11-3.82-.23-6.13-.21-3.72-.45-8.18-.45-12.98zm-90.32 8.28c5.78-1 10.41-2.92 13.9-5.75 4.56-3.7 7.38-9.22 8.45-16.58.07-.52.2-1.04.4-1.55a6.8 6.8 0 0 1 8.8-3.86c3 1.18 6.69 2.37 10.78 3.47 10.17 2.72 22.5 4.79 32.8 4.58 8.39-.17 15.02-1.59 16.42-5.15.03-.08.06-.17.09-.28.1-.56.21-1.12.32-1.68 1.46-7.14 1.24-13.16-.07-17.38-.48-1.54-1.07-2.73-1.74-3.52-.19-.23-.33-.38-.41-.45-20.26 6.28-27.65 4.38-35.07 2.47-2.62-.67-5.25-1.35-8.91-1.35-1.9 0-3.77.11-5.59.33-10.51 1.27-20.56 6.1-27.96 14.16-7.17 7.82-11.89 18.76-12.21 32.54zm89.71-48.18c-.04-.01 0 0 .03.02zM87.87 170.64l-5.31 7.93 3.52 2.21a6.768 6.768 0 0 1 3.08 6.86l-8.11 48.39 10.49 14.31 11.41-14.51-8.08-48.19c-.48-2.9.95-5.68 3.37-7.04l3.24-2.03-5.31-7.93z" clip-rule="evenodd" fill="#f54495" data-original="#000000"/>
  </g>
</svg>
